<svg width="233" height="99" viewBox="0 0 233 99" fill="none" xmlns="http://www.w3.org/2000/svg">
<path d="M69.9996 38.3L62.6996 29.4L60.6996 26.1L62.2996 22L52.5996 30.2L59.8996 39L61.8996 42.3L60.2996 46.4L69.9996 38.3Z" fill="url(#paint0_linear_12_111135)"/>
<path d="M55.8996 34.3L44.4996 34.5L40.6996 34L38.5996 30.2L38.8996 42.9L50.2996 42.7L54.0996 43.2L56.1996 47L55.8996 34.3Z" fill="url(#paint1_linear_12_111135)"/>
<path d="M44 42.8999L37.1 51.9999L34.4 54.7999L30 54.0999L40.1 61.6999L47 52.5999L49.7 49.8999L54.1 50.5999L44 42.8999Z" fill="url(#paint2_linear_12_111135)"/>
<path d="M43.2992 57.6L45.9992 68.7L46.4992 72.5L43.1992 75.5L55.3992 72.3L52.5992 61.2L52.0992 57.4L55.3992 54.5L43.2992 57.6Z" fill="url(#paint3_linear_12_111135)"/>
<path d="M54.3008 67.3L64.6008 72.1L67.9008 74.2001L68.2008 78.6L73.3008 67L62.9008 62.2001L59.6008 60.2001L59.3008 55.8L54.3008 67.3Z" fill="url(#paint4_linear_12_111135)"/>
<path d="M68.7008 64.7001L78.9008 59.6001L82.5008 58.3001L86.1008 60.8001L80.3008 49.6001L70.1008 54.7001L66.4008 56.0001L62.8008 53.5001L68.7008 64.7001Z" fill="url(#paint5_linear_12_111135)"/>
<path d="M75.7008 51.7999L78.0008 40.6L79.3008 36.9L83.5008 35.7L71.1008 33.2L68.8008 44.4L67.5008 48.1L63.3008 49.2999L75.7008 51.7999Z" fill="url(#paint6_linear_12_111135)"/>
<path d="M97.736 45V25.4H103.476L108.152 32.988L112.828 25.4H118.568V45H113.164V33.744L108.152 41.416H108.04L103.056 33.8V45H97.736ZM126.077 45.336C123.193 45.336 120.981 43.684 120.981 40.66V40.604C120.981 37.468 123.361 35.844 126.917 35.844C128.317 35.844 129.689 36.124 130.557 36.432V36.18C130.557 34.612 129.577 33.716 127.533 33.716C125.937 33.716 124.705 34.024 123.361 34.556L122.269 30.804C123.977 30.104 125.797 29.628 128.401 29.628C131.117 29.628 132.965 30.272 134.169 31.476C135.317 32.596 135.793 34.164 135.793 36.292V45H130.529V43.432C129.493 44.58 128.065 45.336 126.077 45.336ZM127.981 42.004C129.521 42.004 130.613 41.024 130.613 39.512V38.812C130.081 38.588 129.325 38.42 128.541 38.42C127.001 38.42 126.105 39.176 126.105 40.296V40.352C126.105 41.388 126.889 42.004 127.981 42.004ZM138.498 28.48V24.56H144.042V28.48H138.498ZM138.61 45V29.852H143.93V45H138.61ZM153.025 45.336C149.441 45.336 146.333 42.34 146.333 37.496V37.44C146.333 32.512 149.413 29.516 152.997 29.516C155.293 29.516 156.637 30.552 157.645 31.7V24.56H162.965V45H157.645V42.984C156.609 44.244 155.293 45.336 153.025 45.336ZM154.649 40.884C156.357 40.884 157.729 39.456 157.729 37.44V37.384C157.729 35.396 156.357 33.968 154.649 33.968C152.941 33.968 151.541 35.368 151.541 37.384V37.44C151.541 39.456 152.941 40.884 154.649 40.884ZM170.155 45.336C167.271 45.336 165.059 43.684 165.059 40.66V40.604C165.059 37.468 167.439 35.844 170.995 35.844C172.395 35.844 173.767 36.124 174.635 36.432V36.18C174.635 34.612 173.655 33.716 171.611 33.716C170.015 33.716 168.783 34.024 167.439 34.556L166.347 30.804C168.055 30.104 169.875 29.628 172.479 29.628C175.195 29.628 177.043 30.272 178.247 31.476C179.395 32.596 179.871 34.164 179.871 36.292V45H174.607V43.432C173.571 44.58 172.143 45.336 170.155 45.336ZM172.059 42.004C173.599 42.004 174.691 41.024 174.691 39.512V38.812C174.159 38.588 173.403 38.42 172.619 38.42C171.079 38.42 170.183 39.176 170.183 40.296V40.352C170.183 41.388 170.967 42.004 172.059 42.004ZM107.592 76.392C101.544 76.392 97.064 71.884 97.064 66.256V66.2C97.064 60.572 101.6 56.008 107.648 56.008C113.696 56.008 118.176 60.516 118.176 66.144V66.2C118.176 71.828 113.64 76.392 107.592 76.392ZM107.648 71.492C110.644 71.492 112.632 69.084 112.632 66.256V66.2C112.632 63.372 110.588 60.908 107.592 60.908C104.624 60.908 102.636 63.316 102.636 66.144V66.2C102.636 69.028 104.68 71.492 107.648 71.492ZM120.698 76V60.852H126.018V62.98C126.998 61.72 128.398 60.516 130.554 60.516C133.774 60.516 135.706 62.644 135.706 66.088V76H130.386V67.796C130.386 66.144 129.518 65.248 128.258 65.248C126.97 65.248 126.018 66.144 126.018 67.796V76H120.698ZM138.136 69.588V64.912H147.32V69.588H138.136ZM157.881 76.336C154.409 76.336 151.105 75.244 148.697 73.088L151.721 69.476C153.653 71.016 155.809 71.828 158.077 71.828C159.533 71.828 160.317 71.324 160.317 70.484V70.428C160.317 69.616 159.673 69.168 157.013 68.552C152.841 67.6 149.621 66.424 149.621 62.392V62.336C149.621 58.696 152.505 56.064 157.209 56.064C160.541 56.064 163.145 56.96 165.273 58.668L162.557 62.504C160.765 61.244 158.805 60.572 157.069 60.572C155.753 60.572 155.109 61.132 155.109 61.832V61.888C155.109 62.784 155.781 63.176 158.497 63.792C163.005 64.772 165.805 66.228 165.805 69.896V69.952C165.805 73.956 162.641 76.336 157.881 76.336ZM168.139 59.48V55.56H173.683V59.48H168.139ZM168.251 76V60.852H173.571V76H168.251ZM182.553 76.308C179.361 76.308 177.457 74.908 177.457 71.296V65.136H175.665V60.852H177.457V57.016H182.777V60.852H186.305V65.136H182.777V70.26C182.777 71.324 183.253 71.772 184.233 71.772C184.933 71.772 185.605 71.576 186.249 71.268V75.44C185.297 75.972 184.037 76.308 182.553 76.308ZM195.686 76.364C190.926 76.364 187.566 73.2 187.566 68.496V68.44C187.566 64.016 190.73 60.516 195.21 60.516C200.446 60.516 202.854 64.352 202.854 68.804C202.854 69.14 202.854 69.532 202.826 69.896H192.69C193.11 71.548 194.314 72.388 195.966 72.388C197.226 72.388 198.234 71.912 199.326 70.848L202.266 73.284C200.81 75.132 198.71 76.364 195.686 76.364ZM192.606 67.18H197.87C197.674 65.5 196.694 64.436 195.238 64.436C193.838 64.436 192.886 65.528 192.606 67.18Z" fill="#E50004"/>
<defs>
<linearGradient id="paint0_linear_12_111135" x1="69.9683" y1="22.1344" x2="47.1233" y2="38.564" gradientUnits="userSpaceOnUse">
<stop/>
<stop offset="1" stop-color="#E50004"/>
</linearGradient>
<linearGradient id="paint1_linear_12_111135" x1="56.168" y1="30.2925" x2="39.6013" y2="47.7956" gradientUnits="userSpaceOnUse">
<stop/>
<stop offset="1" stop-color="#E50004"/>
</linearGradient>
<linearGradient id="paint2_linear_12_111135" x1="54.0567" y1="43.0034" x2="36.0857" y2="66.2367" gradientUnits="userSpaceOnUse">
<stop/>
<stop offset="1" stop-color="#E50004"/>
</linearGradient>
<linearGradient id="paint3_linear_12_111135" x1="55.3773" y1="54.6157" x2="37.2853" y2="65.2157" gradientUnits="userSpaceOnUse">
<stop/>
<stop offset="1" stop-color="#E50004"/>
</linearGradient>
<linearGradient id="paint4_linear_12_111135" x1="73.2666" y1="55.9256" x2="51.0853" y2="74.5673" gradientUnits="userSpaceOnUse">
<stop/>
<stop offset="1" stop-color="#E50004"/>
</linearGradient>
<linearGradient id="paint5_linear_12_111135" x1="86.0589" y1="49.6833" x2="72.4942" y2="70.7922" gradientUnits="userSpaceOnUse">
<stop/>
<stop offset="1" stop-color="#E50004"/>
</linearGradient>
<linearGradient id="paint6_linear_12_111135" x1="83.4645" y1="33.3024" x2="65.1708" y2="53.3387" gradientUnits="userSpaceOnUse">
<stop/>
<stop offset="1" stop-color="#E50004"/>
</linearGradient>
</defs>
</svg>
