<svg width="233" height="99" viewBox="0 0 233 99" fill="none" xmlns="http://www.w3.org/2000/svg">
<path d="M80.9996 38.3L73.6996 29.4L71.6996 26.1L73.2996 22L63.5996 30.2L70.8996 39L72.8996 42.3L71.2996 46.4L80.9996 38.3Z" fill="url(#paint0_linear_12_111146)"/>
<path d="M66.8996 34.3L55.4996 34.5L51.6996 34L49.5996 30.2L49.8996 42.9L61.2996 42.7L65.0996 43.2L67.1996 47L66.8996 34.3Z" fill="url(#paint1_linear_12_111146)"/>
<path d="M55 42.8999L48.1 51.9999L45.4 54.7999L41 54.0999L51.1 61.6999L58 52.5999L60.7 49.8999L65.1 50.5999L55 42.8999Z" fill="url(#paint2_linear_12_111146)"/>
<path d="M54.2992 57.6L56.9992 68.7L57.4992 72.5L54.1992 75.5L66.3992 72.3L63.5992 61.2L63.0992 57.4L66.3992 54.5L54.2992 57.6Z" fill="url(#paint3_linear_12_111146)"/>
<path d="M65.3008 67.3L75.6008 72.1L78.9008 74.2001L79.2008 78.6L84.3008 67L73.9008 62.2001L70.6008 60.2001L70.3008 55.8L65.3008 67.3Z" fill="url(#paint4_linear_12_111146)"/>
<path d="M79.7008 64.7001L89.9008 59.6001L93.5008 58.3001L97.1008 60.8001L91.3008 49.6001L81.1008 54.7001L77.4008 56.0001L73.8008 53.5001L79.7008 64.7001Z" fill="url(#paint5_linear_12_111146)"/>
<path d="M86.7008 51.7999L89.0008 40.6L90.3008 36.9L94.5008 35.7L82.1008 33.2L79.8008 44.4L78.5008 48.1L74.3008 49.2999L86.7008 51.7999Z" fill="url(#paint6_linear_12_111146)"/>
<path d="M108.736 45V25.4H114.476L119.152 32.988L123.828 25.4H129.568V45H124.164V33.744L119.152 41.416H119.04L114.056 33.8V45H108.736ZM137.077 45.336C134.193 45.336 131.981 43.684 131.981 40.66V40.604C131.981 37.468 134.361 35.844 137.917 35.844C139.317 35.844 140.689 36.124 141.557 36.432V36.18C141.557 34.612 140.577 33.716 138.533 33.716C136.937 33.716 135.705 34.024 134.361 34.556L133.269 30.804C134.977 30.104 136.797 29.628 139.401 29.628C142.117 29.628 143.965 30.272 145.169 31.476C146.317 32.596 146.793 34.164 146.793 36.292V45H141.529V43.432C140.493 44.58 139.065 45.336 137.077 45.336ZM138.981 42.004C140.521 42.004 141.613 41.024 141.613 39.512V38.812C141.081 38.588 140.325 38.42 139.541 38.42C138.001 38.42 137.105 39.176 137.105 40.296V40.352C137.105 41.388 137.889 42.004 138.981 42.004ZM149.498 28.48V24.56H155.042V28.48H149.498ZM149.61 45V29.852H154.93V45H149.61ZM164.025 45.336C160.441 45.336 157.333 42.34 157.333 37.496V37.44C157.333 32.512 160.413 29.516 163.997 29.516C166.293 29.516 167.637 30.552 168.645 31.7V24.56H173.965V45H168.645V42.984C167.609 44.244 166.293 45.336 164.025 45.336ZM165.649 40.884C167.357 40.884 168.729 39.456 168.729 37.44V37.384C168.729 35.396 167.357 33.968 165.649 33.968C163.941 33.968 162.541 35.368 162.541 37.384V37.44C162.541 39.456 163.941 40.884 165.649 40.884ZM181.155 45.336C178.271 45.336 176.059 43.684 176.059 40.66V40.604C176.059 37.468 178.439 35.844 181.995 35.844C183.395 35.844 184.767 36.124 185.635 36.432V36.18C185.635 34.612 184.655 33.716 182.611 33.716C181.015 33.716 179.783 34.024 178.439 34.556L177.347 30.804C179.055 30.104 180.875 29.628 183.479 29.628C186.195 29.628 188.043 30.272 189.247 31.476C190.395 32.596 190.871 34.164 190.871 36.292V45H185.607V43.432C184.571 44.58 183.143 45.336 181.155 45.336ZM183.059 42.004C184.599 42.004 185.691 41.024 185.691 39.512V38.812C185.159 38.588 184.403 38.42 183.619 38.42C182.079 38.42 181.183 39.176 181.183 40.296V40.352C181.183 41.388 181.967 42.004 183.059 42.004ZM118.172 76.392C112.572 76.392 108.064 72.108 108.064 66.256V66.2C108.064 60.488 112.46 56.008 118.396 56.008C122.4 56.008 124.976 57.688 126.712 60.096L122.624 63.26C121.504 61.86 120.216 60.964 118.34 60.964C115.596 60.964 113.664 63.288 113.664 66.144V66.2C113.664 69.14 115.596 71.436 118.34 71.436C120.384 71.436 121.588 70.484 122.764 69.056L126.852 71.968C125.004 74.516 122.512 76.392 118.172 76.392ZM128.881 76V55.56H134.201V62.924C135.181 61.664 136.581 60.516 138.737 60.516C141.957 60.516 143.889 62.644 143.889 66.088V76H138.569V67.796C138.569 66.144 137.701 65.248 136.441 65.248C135.153 65.248 134.201 66.144 134.201 67.796V76H128.881ZM154.131 76.364C149.371 76.364 146.011 73.2 146.011 68.496V68.44C146.011 64.016 149.175 60.516 153.655 60.516C158.891 60.516 161.299 64.352 161.299 68.804C161.299 69.14 161.299 69.532 161.271 69.896H151.135C151.555 71.548 152.759 72.388 154.411 72.388C155.671 72.388 156.679 71.912 157.771 70.848L160.711 73.284C159.255 75.132 157.155 76.364 154.131 76.364ZM151.051 67.18H156.315C156.119 65.5 155.139 64.436 153.683 64.436C152.283 64.436 151.331 65.528 151.051 67.18ZM164.532 76V65.108H162.768V60.936H164.532V60.6C164.532 58.864 164.924 57.576 165.82 56.68C166.744 55.756 167.976 55.364 169.768 55.364C171.392 55.364 172.4 55.532 173.24 55.784V59.536C172.624 59.34 172.008 59.228 171.252 59.228C170.272 59.228 169.74 59.676 169.74 60.656V61.02H173.212V65.108H169.824V76H164.532Z" fill="#51D400"/>
<defs>
<linearGradient id="paint0_linear_12_111146" x1="80.9683" y1="22.1344" x2="58.1233" y2="38.564" gradientUnits="userSpaceOnUse">
<stop/>
<stop offset="1" stop-color="#51D400"/>
</linearGradient>
<linearGradient id="paint1_linear_12_111146" x1="67.168" y1="30.2925" x2="50.6013" y2="47.7956" gradientUnits="userSpaceOnUse">
<stop/>
<stop offset="1" stop-color="#51D400"/>
</linearGradient>
<linearGradient id="paint2_linear_12_111146" x1="65.0567" y1="43.0034" x2="47.0857" y2="66.2367" gradientUnits="userSpaceOnUse">
<stop/>
<stop offset="1" stop-color="#51D400"/>
</linearGradient>
<linearGradient id="paint3_linear_12_111146" x1="66.3773" y1="54.6157" x2="48.2853" y2="65.2157" gradientUnits="userSpaceOnUse">
<stop/>
<stop offset="1" stop-color="#51D400"/>
</linearGradient>
<linearGradient id="paint4_linear_12_111146" x1="84.2666" y1="55.9256" x2="62.0853" y2="74.5673" gradientUnits="userSpaceOnUse">
<stop/>
<stop offset="1" stop-color="#51D400"/>
</linearGradient>
<linearGradient id="paint5_linear_12_111146" x1="97.0589" y1="49.6833" x2="83.4942" y2="70.7922" gradientUnits="userSpaceOnUse">
<stop/>
<stop offset="1" stop-color="#51D400"/>
</linearGradient>
<linearGradient id="paint6_linear_12_111146" x1="94.4645" y1="33.3024" x2="76.1708" y2="53.3387" gradientUnits="userSpaceOnUse">
<stop/>
<stop offset="1" stop-color="#51D400"/>
</linearGradient>
</defs>
</svg>
