<svg width="233" height="99" viewBox="0 0 233 99" fill="none" xmlns="http://www.w3.org/2000/svg">
<path d="M61.9996 38.3L54.6996 29.4L52.6996 26.1L54.2996 22L44.5996 30.2L51.8996 39L53.8996 42.3L52.2996 46.4L61.9996 38.3Z" fill="url(#paint0_linear_12_111124)"/>
<path d="M47.8996 34.3L36.4996 34.5L32.6996 34L30.5996 30.2L30.8996 42.9L42.2996 42.7L46.0996 43.2L48.1996 47L47.8996 34.3Z" fill="url(#paint1_linear_12_111124)"/>
<path d="M36 42.8999L29.1 51.9999L26.4 54.7999L22 54.0999L32.1 61.6999L39 52.5999L41.7 49.8999L46.1 50.5999L36 42.8999Z" fill="url(#paint2_linear_12_111124)"/>
<path d="M35.2992 57.6L37.9992 68.7L38.4992 72.5L35.1992 75.5L47.3992 72.3L44.5992 61.2L44.0992 57.4L47.3992 54.5L35.2992 57.6Z" fill="url(#paint3_linear_12_111124)"/>
<path d="M46.3008 67.3L56.6008 72.1L59.9008 74.2001L60.2008 78.6L65.3008 67L54.9008 62.2001L51.6008 60.2001L51.3008 55.8L46.3008 67.3Z" fill="url(#paint4_linear_12_111124)"/>
<path d="M60.7008 64.7001L70.9008 59.6001L74.5008 58.3001L78.1008 60.8001L72.3008 49.6001L62.1008 54.7001L58.4008 56.0001L54.8008 53.5001L60.7008 64.7001Z" fill="url(#paint5_linear_12_111124)"/>
<path d="M67.7008 51.7999L70.0008 40.6L71.3008 36.9L75.5008 35.7L63.1008 33.2L60.8008 44.4L59.5008 48.1L55.3008 49.2999L67.7008 51.7999Z" fill="url(#paint6_linear_12_111124)"/>
<path d="M89.736 45V25.4H95.476L100.152 32.988L104.828 25.4H110.568V45H105.164V33.744L100.152 41.416H100.04L95.056 33.8V45H89.736ZM118.077 45.336C115.193 45.336 112.981 43.684 112.981 40.66V40.604C112.981 37.468 115.361 35.844 118.917 35.844C120.317 35.844 121.689 36.124 122.557 36.432V36.18C122.557 34.612 121.577 33.716 119.533 33.716C117.937 33.716 116.705 34.024 115.361 34.556L114.269 30.804C115.977 30.104 117.797 29.628 120.401 29.628C123.117 29.628 124.965 30.272 126.169 31.476C127.317 32.596 127.793 34.164 127.793 36.292V45H122.529V43.432C121.493 44.58 120.065 45.336 118.077 45.336ZM119.981 42.004C121.521 42.004 122.613 41.024 122.613 39.512V38.812C122.081 38.588 121.325 38.42 120.541 38.42C119.001 38.42 118.105 39.176 118.105 40.296V40.352C118.105 41.388 118.889 42.004 119.981 42.004ZM130.498 28.48V24.56H136.042V28.48H130.498ZM130.61 45V29.852H135.93V45H130.61ZM145.025 45.336C141.441 45.336 138.333 42.34 138.333 37.496V37.44C138.333 32.512 141.413 29.516 144.997 29.516C147.293 29.516 148.637 30.552 149.645 31.7V24.56H154.965V45H149.645V42.984C148.609 44.244 147.293 45.336 145.025 45.336ZM146.649 40.884C148.357 40.884 149.729 39.456 149.729 37.44V37.384C149.729 35.396 148.357 33.968 146.649 33.968C144.941 33.968 143.541 35.368 143.541 37.384V37.44C143.541 39.456 144.941 40.884 146.649 40.884ZM162.155 45.336C159.271 45.336 157.059 43.684 157.059 40.66V40.604C157.059 37.468 159.439 35.844 162.995 35.844C164.395 35.844 165.767 36.124 166.635 36.432V36.18C166.635 34.612 165.655 33.716 163.611 33.716C162.015 33.716 160.783 34.024 159.439 34.556L158.347 30.804C160.055 30.104 161.875 29.628 164.479 29.628C167.195 29.628 169.043 30.272 170.247 31.476C171.395 32.596 171.871 34.164 171.871 36.292V45H166.607V43.432C165.571 44.58 164.143 45.336 162.155 45.336ZM164.059 42.004C165.599 42.004 166.691 41.024 166.691 39.512V38.812C166.159 38.588 165.403 38.42 164.619 38.42C163.079 38.42 162.183 39.176 162.183 40.296V40.352C162.183 41.388 162.967 42.004 164.059 42.004ZM89.736 76V56.4H95.476L100.152 63.988L104.828 56.4H110.568V76H105.164V64.744L100.152 72.416H100.04L95.056 64.8V76H89.736ZM118.077 76.336C115.193 76.336 112.981 74.684 112.981 71.66V71.604C112.981 68.468 115.361 66.844 118.917 66.844C120.317 66.844 121.689 67.124 122.557 67.432V67.18C122.557 65.612 121.577 64.716 119.533 64.716C117.937 64.716 116.705 65.024 115.361 65.556L114.269 61.804C115.977 61.104 117.797 60.628 120.401 60.628C123.117 60.628 124.965 61.272 126.169 62.476C127.317 63.596 127.793 65.164 127.793 67.292V76H122.529V74.432C121.493 75.58 120.065 76.336 118.077 76.336ZM119.981 73.004C121.521 73.004 122.613 72.024 122.613 70.512V69.812C122.081 69.588 121.325 69.42 120.541 69.42C119.001 69.42 118.105 70.176 118.105 71.296V71.352C118.105 72.388 118.889 73.004 119.981 73.004ZM130.498 76V60.852H135.818V62.98C136.798 61.72 138.198 60.516 140.354 60.516C143.574 60.516 145.506 62.644 145.506 66.088V76H140.186V67.796C140.186 66.144 139.318 65.248 138.058 65.248C136.77 65.248 135.818 66.144 135.818 67.796V76H130.498ZM152.584 76.336C149.7 76.336 147.488 74.684 147.488 71.66V71.604C147.488 68.468 149.868 66.844 153.424 66.844C154.824 66.844 156.196 67.124 157.064 67.432V67.18C157.064 65.612 156.084 64.716 154.04 64.716C152.444 64.716 151.212 65.024 149.868 65.556L148.776 61.804C150.484 61.104 152.304 60.628 154.908 60.628C157.624 60.628 159.472 61.272 160.676 62.476C161.824 63.596 162.3 65.164 162.3 67.292V76H157.036V74.432C156 75.58 154.572 76.336 152.584 76.336ZM154.488 73.004C156.028 73.004 157.12 72.024 157.12 70.512V69.812C156.588 69.588 155.832 69.42 155.048 69.42C153.508 69.42 152.612 70.176 152.612 71.296V71.352C152.612 72.388 153.396 73.004 154.488 73.004ZM172.454 80.536C169.514 80.536 167.05 79.92 164.866 78.8L166.574 75.272C168.198 76.168 169.822 76.7 171.866 76.7C174.526 76.7 175.842 75.384 175.842 72.976V72.388C174.778 73.62 173.378 74.656 171.166 74.656C167.442 74.656 164.446 71.968 164.446 67.628V67.572C164.446 63.204 167.498 60.516 170.998 60.516C173.266 60.516 174.61 61.44 175.758 62.644V60.852H181.078V72.36C181.078 75.132 180.462 77.064 179.118 78.408C177.746 79.78 175.618 80.536 172.454 80.536ZM172.762 70.568C174.554 70.568 175.842 69.308 175.842 67.628V67.572C175.842 65.892 174.554 64.66 172.762 64.66C170.942 64.66 169.654 65.92 169.654 67.6V67.656C169.654 69.336 170.942 70.568 172.762 70.568ZM191.432 76.364C186.672 76.364 183.312 73.2 183.312 68.496V68.44C183.312 64.016 186.476 60.516 190.956 60.516C196.192 60.516 198.6 64.352 198.6 68.804C198.6 69.14 198.6 69.532 198.572 69.896H188.436C188.856 71.548 190.06 72.388 191.712 72.388C192.972 72.388 193.98 71.912 195.072 70.848L198.012 73.284C196.556 75.132 194.456 76.364 191.432 76.364ZM188.352 67.18H193.616C193.42 65.5 192.44 64.436 190.984 64.436C189.584 64.436 188.632 65.528 188.352 67.18ZM200.881 76V60.852H206.201V63.904C207.069 61.832 208.469 60.488 210.989 60.6V66.2H210.541C207.769 66.2 206.201 67.796 206.201 71.296V76H200.881Z" fill="#0077FF"/>
<defs>
<linearGradient id="paint0_linear_12_111124" x1="61.9683" y1="22.1344" x2="39.1233" y2="38.564" gradientUnits="userSpaceOnUse">
<stop/>
<stop offset="1" stop-color="#0077FF"/>
</linearGradient>
<linearGradient id="paint1_linear_12_111124" x1="48.168" y1="30.2925" x2="31.6013" y2="47.7956" gradientUnits="userSpaceOnUse">
<stop/>
<stop offset="1" stop-color="#0077FF"/>
</linearGradient>
<linearGradient id="paint2_linear_12_111124" x1="46.0567" y1="43.0034" x2="28.0857" y2="66.2367" gradientUnits="userSpaceOnUse">
<stop/>
<stop offset="1" stop-color="#0077FF"/>
</linearGradient>
<linearGradient id="paint3_linear_12_111124" x1="47.3773" y1="54.6157" x2="29.2853" y2="65.2157" gradientUnits="userSpaceOnUse">
<stop/>
<stop offset="1" stop-color="#0077FF"/>
</linearGradient>
<linearGradient id="paint4_linear_12_111124" x1="65.2666" y1="55.9256" x2="43.0853" y2="74.5673" gradientUnits="userSpaceOnUse">
<stop/>
<stop offset="1" stop-color="#0077FF"/>
</linearGradient>
<linearGradient id="paint5_linear_12_111124" x1="78.0589" y1="49.6833" x2="64.4942" y2="70.7922" gradientUnits="userSpaceOnUse">
<stop/>
<stop offset="1" stop-color="#0077FF"/>
</linearGradient>
<linearGradient id="paint6_linear_12_111124" x1="75.4645" y1="33.3024" x2="57.1708" y2="53.3387" gradientUnits="userSpaceOnUse">
<stop/>
<stop offset="1" stop-color="#0077FF"/>
</linearGradient>
</defs>
</svg>
